<svg width="19" height="18" viewBox="0 0 19 18" fill="none" xmlns="http://www.w3.org/2000/svg">
<path d="M15.8984 8.43747V15.1875C15.8984 15.3367 15.8392 15.4797 15.7337 15.5852C15.6282 15.6907 15.4851 15.75 15.3359 15.75H11.3984C11.2493 15.75 11.1062 15.6907 11.0007 15.5852C10.8952 15.4797 10.8359 15.3367 10.8359 15.1875V11.5312C10.8359 11.4566 10.8063 11.3851 10.7536 11.3323C10.7008 11.2796 10.6293 11.25 10.5547 11.25H7.74219C7.6676 11.25 7.59606 11.2796 7.54331 11.3323C7.49057 11.3851 7.46094 11.4566 7.46094 11.5312V15.1875C7.46094 15.3367 7.40167 15.4797 7.29618 15.5852C7.1907 15.6907 7.04762 15.75 6.89844 15.75H2.96094C2.81175 15.75 2.66868 15.6907 2.56319 15.5852C2.4577 15.4797 2.39844 15.3367 2.39844 15.1875V8.43747C2.39858 8.13915 2.51719 7.8531 2.7282 7.64223L8.3532 2.01723C8.56416 1.80641 8.8502 1.68799 9.14844 1.68799C9.44668 1.68799 9.73271 1.80641 9.94367 2.01723L15.5687 7.64223C15.7797 7.8531 15.8983 8.13915 15.8984 8.43747Z" fill="#F1F1F1"/>
</svg>
