<svg width="19" height="18" viewBox="0 0 19 18" fill="none" xmlns="http://www.w3.org/2000/svg">
<path d="M15.4648 2.25H4.21484C3.91648 2.25 3.63033 2.36853 3.41935 2.5795C3.20837 2.79048 3.08984 3.07663 3.08984 3.375V14.625C3.08984 14.9234 3.20837 15.2095 3.41935 15.4205C3.63033 15.6315 3.91648 15.75 4.21484 15.75H15.4648C15.7632 15.75 16.0494 15.6315 16.2603 15.4205C16.4713 15.2095 16.5898 14.9234 16.5898 14.625V3.375C16.5898 3.07663 16.4713 2.79048 16.2603 2.5795C16.0494 2.36853 15.7632 2.25 15.4648 2.25ZM14.3398 12.9375H5.33984C5.19066 12.9375 5.04759 12.8782 4.9421 12.7727C4.83661 12.6673 4.77734 12.5242 4.77734 12.375C4.77734 12.2258 4.83661 12.0827 4.9421 11.9773C5.04759 11.8718 5.19066 11.8125 5.33984 11.8125H14.3398C14.489 11.8125 14.6321 11.8718 14.7376 11.9773C14.8431 12.0827 14.9023 12.2258 14.9023 12.375C14.9023 12.5242 14.8431 12.6673 14.7376 12.7727C14.6321 12.8782 14.489 12.9375 14.3398 12.9375ZM14.3398 9.5625H5.33984C5.19066 9.5625 5.04759 9.50324 4.9421 9.39775C4.83661 9.29226 4.77734 9.14918 4.77734 9C4.77734 8.85082 4.83661 8.70774 4.9421 8.60225C5.04759 8.49676 5.19066 8.4375 5.33984 8.4375H14.3398C14.489 8.4375 14.6321 8.49676 14.7376 8.60225C14.8431 8.70774 14.9023 8.85082 14.9023 9C14.9023 9.14918 14.8431 9.29226 14.7376 9.39775C14.6321 9.50324 14.489 9.5625 14.3398 9.5625ZM14.3398 6.1875H5.33984C5.19066 6.1875 5.04759 6.12824 4.9421 6.02275C4.83661 5.91726 4.77734 5.77418 4.77734 5.625C4.77734 5.47582 4.83661 5.33274 4.9421 5.22725C5.04759 5.12176 5.19066 5.0625 5.33984 5.0625H14.3398C14.489 5.0625 14.6321 5.12176 14.7376 5.22725C14.8431 5.33274 14.9023 5.47582 14.9023 5.625C14.9023 5.77418 14.8431 5.91726 14.7376 6.02275C14.6321 6.12824 14.489 6.1875 14.3398 6.1875Z" fill="#F1F1F1"/>
</svg>
